<?xml version="1.0" encoding="utf-8"?>
<!-- Generator: Adobe Illustrator 22.0.1, SVG Export Plug-In . SVG Version: 6.00 Build 0)  -->
<svg version="1.1" id="레이어_1" xmlns="http://www.w3.org/2000/svg" xmlns:xlink="http://www.w3.org/1999/xlink" x="0px"
	 y="0px" viewBox="0 0 52 22" style="enable-background:new 0 0 52 22;" xml:space="preserve">
<style type="text/css">
	.st0{fill:#1A8FFF;}
	.st1{fill:#FFFFFF;}
</style>
<g>
	<path class="st0" d="M51,16c0,2.8-2.2,5-5,5H6c-2.8,0-5-2.2-5-5V6c0-2.8,2.2-5,5-5h40c2.8,0,5,2.2,5,5V16z"/>
	<g>
		<g>
			<path class="st1" d="M11.6,8.9c0,0.2,0,0.2,0.1,0.2c0.1,0,0.1,0,0.2-0.1c0.3-0.2,0.6-0.3,0.9-0.4c0.3-0.1,0.6-0.1,0.9-0.1
				c0.6,0,1.2,0.1,1.7,0.3s0.9,0.5,1.2,0.9c0.3,0.4,0.5,0.8,0.7,1.2c0.2,0.4,0.2,0.9,0.2,1.3c0,0.6-0.1,1.2-0.3,1.6
				s-0.5,0.9-0.8,1.2c-0.4,0.3-0.8,0.6-1.2,0.7s-0.9,0.2-1.4,0.2c-0.3,0-0.7,0-1-0.1c-0.3-0.1-0.7-0.2-1-0.4c0,0-0.1,0-0.1-0.1
				c0,0-0.1,0-0.1,0c-0.1,0.2-0.2,0.4-0.3,0.5c-0.2,0.1-0.3,0.1-0.5,0.1c-0.3,0-0.5-0.1-0.6-0.3c-0.1-0.2-0.1-0.4-0.1-0.6V7.5
				C9.8,7.4,9.7,7.3,9.6,7.1C9.5,7,9.5,6.9,9.5,6.7c0-0.2,0.1-0.4,0.2-0.6c0.2-0.2,0.4-0.2,0.6-0.2c0.4,0,0.6,0.1,0.9,0.3
				c0.2,0.2,0.3,0.5,0.4,0.8V8.9z M13.7,10.1c-0.3,0-0.5,0-0.8,0.1c-0.3,0.1-0.5,0.2-0.7,0.4s-0.3,0.4-0.5,0.6
				c-0.1,0.3-0.2,0.5-0.2,0.9v0.2c0,0.4,0.1,0.7,0.2,1s0.3,0.5,0.5,0.6s0.4,0.3,0.7,0.3c0.3,0.1,0.5,0.1,0.8,0.1
				c0.6,0,1.1-0.2,1.5-0.6c0.4-0.4,0.6-0.9,0.6-1.6c0-0.3-0.1-0.6-0.2-0.9c-0.1-0.3-0.3-0.5-0.5-0.7c-0.2-0.2-0.4-0.3-0.7-0.4
				C14.2,10.2,14,10.1,13.7,10.1z"/>
			<path class="st1" d="M23.2,14.4c0.5,0,1-0.1,1.3-0.2c0.3-0.1,0.5-0.3,0.7-0.4c0.1-0.1,0.2-0.1,0.3-0.2c0.1-0.1,0.2-0.1,0.3-0.2
				c0.1,0,0.2,0,0.4,0c0.1,0,0.2,0.1,0.4,0.2c0.2,0.2,0.2,0.3,0.2,0.6c0,0.2-0.1,0.4-0.2,0.5c-0.2,0.2-0.4,0.5-0.7,0.6
				s-0.5,0.3-0.8,0.4c-0.3,0.1-0.6,0.2-0.9,0.2c-0.3,0-0.6,0.1-0.9,0.1c-0.5,0-1-0.1-1.4-0.2c-0.5-0.2-0.9-0.4-1.2-0.7
				c-0.4-0.3-0.6-0.7-0.9-1.2s-0.3-1-0.3-1.7c0-0.6,0.1-1.1,0.3-1.5c0.2-0.5,0.5-0.9,0.8-1.2c0.3-0.3,0.7-0.6,1.2-0.8
				C22,8.6,22.5,8.5,23,8.5c0.6,0,1.1,0.1,1.5,0.3s0.9,0.5,1.2,0.8c0.3,0.3,0.6,0.7,0.7,1.1s0.3,0.8,0.3,1.2c0,0.1,0,0.3-0.1,0.4
				c0,0.1-0.1,0.2-0.2,0.3c-0.1,0.1-0.2,0.2-0.4,0.3C25.9,13,25.7,13,25.4,13h-4.1c-0.1,0-0.2,0-0.2,0.1c0,0.1,0,0.2,0.1,0.3
				c0.2,0.3,0.5,0.6,0.8,0.7S22.8,14.4,23.2,14.4z M24.7,11.5c0.2,0,0.2,0,0.2-0.1s0-0.2-0.1-0.3c-0.4-0.6-1-0.9-1.8-0.9
				c-0.4,0-0.8,0.1-1.1,0.3c-0.3,0.2-0.6,0.5-0.7,0.8c0,0.1-0.1,0.2,0,0.2c0,0.1,0.1,0.1,0.2,0.1H24.7z"/>
			<path class="st1" d="M31.5,10c-0.3,0-0.6,0-0.8,0.1c-0.2,0.1-0.4,0.2-0.4,0.4s0.2,0.4,0.5,0.6c0.4,0.1,0.9,0.3,1.5,0.4
				c0.7,0.2,1.3,0.3,1.7,0.5c0.4,0.2,0.7,0.4,0.9,0.7s0.3,0.4,0.4,0.7c0,0.2,0.1,0.4,0.1,0.6c0,0.4-0.1,0.7-0.3,0.9
				c-0.2,0.3-0.4,0.5-0.7,0.6c-0.3,0.2-0.7,0.3-1.1,0.4c-0.4,0.1-0.9,0.1-1.3,0.1c-0.3,0-0.7,0-1-0.1c-0.3-0.1-0.7-0.2-1-0.3
				c-0.3-0.2-0.6-0.3-0.8-0.6c-0.3-0.2-0.5-0.5-0.6-0.8c-0.1-0.2-0.2-0.5-0.1-0.7c0.1-0.2,0.2-0.3,0.4-0.5c0.2-0.1,0.4-0.1,0.6-0.1
				s0.4,0.2,0.5,0.5c0.1,0.2,0.2,0.4,0.4,0.5c0.2,0.1,0.3,0.2,0.5,0.3c0.2,0.1,0.4,0.2,0.6,0.2c0.2,0,0.4,0.1,0.5,0.1
				c0.1,0,0.2,0,0.4,0c0.2,0,0.3,0,0.5-0.1c0.2,0,0.3-0.1,0.4-0.2c0.1-0.1,0.2-0.2,0.2-0.4c0-0.1,0-0.3-0.1-0.3
				c-0.1-0.1-0.2-0.2-0.4-0.2c-0.2-0.1-0.4-0.1-0.6-0.2c-0.3-0.1-0.6-0.1-0.9-0.2c-0.4-0.1-0.7-0.2-1.1-0.3
				c-0.4-0.1-0.7-0.2-0.9-0.4c-0.3-0.2-0.5-0.4-0.7-0.6s-0.3-0.6-0.3-0.9c0-0.5,0.1-0.9,0.3-1.1s0.5-0.5,0.8-0.6
				c0.3-0.1,0.7-0.2,1-0.3s0.7-0.1,1-0.1c0.2,0,0.5,0,0.8,0.1c0.3,0,0.6,0.1,0.8,0.2c0.3,0.1,0.6,0.2,0.8,0.4
				c0.3,0.2,0.5,0.4,0.7,0.6C35,9.9,35,10.1,35,10.3c0,0.2-0.1,0.4-0.4,0.5C34.5,11,34.3,11,34.1,11c-0.2,0-0.4-0.1-0.5-0.2
				c-0.3-0.2-0.7-0.4-1-0.6C32.2,10.1,31.9,10,31.5,10z"/>
			<path class="st1" d="M40,8.4c0,0,0.1,0,0.1,0h1.5c0.3,0,0.5,0.1,0.6,0.3c0.1,0.2,0.2,0.4,0.2,0.6c0,0.1,0,0.2,0,0.3
				c0,0.1-0.1,0.2-0.1,0.3c-0.1,0.1-0.1,0.2-0.3,0.2c-0.1,0.1-0.2,0.1-0.4,0.1h-1.5c-0.1,0-0.1,0-0.2,0.1s0,0.1,0,0.1v3.1
				c0,0.3,0.1,0.6,0.3,0.7s0.5,0.3,0.9,0.3h0.5c0.2,0,0.4,0.1,0.6,0.2c0.2,0.1,0.3,0.3,0.3,0.6c0,0.3-0.1,0.5-0.3,0.6
				C42.1,16,41.9,16,41.7,16h-0.5c-0.4,0-0.8,0-1.1-0.1c-0.3-0.1-0.7-0.2-0.9-0.4c-0.3-0.2-0.5-0.5-0.6-0.8
				c-0.1-0.3-0.2-0.8-0.2-1.3v-3.1c0,0,0-0.1,0-0.1s-0.1-0.1-0.1-0.1h-0.7c-0.3,0-0.6-0.1-0.7-0.3c-0.1-0.2-0.2-0.4-0.2-0.6
				c0-0.2,0.1-0.4,0.2-0.5c0.1-0.2,0.3-0.3,0.7-0.3H38c0.1,0,0.1,0,0.2,0c0.1,0,0.1-0.1,0.1-0.2V7.5c-0.1-0.1-0.2-0.2-0.3-0.3
				c-0.1-0.1-0.1-0.3-0.1-0.4c0-0.2,0.1-0.4,0.2-0.6c0.2-0.2,0.4-0.2,0.6-0.2c0.4,0,0.6,0.1,0.9,0.3S39.9,6.7,40,7v1.3
				C40,8.4,40,8.4,40,8.4z"/>
		</g>
	</g>
</g>
</svg>
