<?xml version="1.0" encoding="utf-8"?>
<!-- Generator: Adobe Illustrator 22.0.1, SVG Export Plug-In . SVG Version: 6.00 Build 0)  -->
<svg version="1.1" id="레이어_1" xmlns="http://www.w3.org/2000/svg" xmlns:xlink="http://www.w3.org/1999/xlink" x="0px"
	 y="0px" viewBox="0 0 52 52" style="enable-background:new 0 0 52 52;" xml:space="preserve">
<style type="text/css">
	.st0{opacity:0.5;fill:#FFFFFF;}
	.st1{fill:#FFFFFF;}
</style>
<g>
	<path class="st0" d="M26,50L26,50C12.8,50,2,39.2,2,26v0C2,12.8,12.8,2,26,2h0c13.2,0,24,10.8,24,24v0C50,39.2,39.2,50,26,50z"/>
	<path class="st1" d="M26,51C12.2,51,1,39.8,1,26S12.2,1,26,1s25,11.2,25,25S39.8,51,26,51z M26,3C13.3,3,3,13.3,3,26
		c0,12.7,10.3,23,23,23s23-10.3,23-23C49,13.3,38.7,3,26,3z"/>
	<g>
		<rect x="19.4" y="25.5" class="st1" width="13.2" height="1"/>
		<polygon class="st1" points="29.2,29.7 28.6,29 31.9,26 28.6,23 29.2,22.3 33.3,26 		"/>
	</g>
</g>
</svg>
