<?xml version="1.0" encoding="utf-8"?>
<!-- Generator: Adobe Illustrator 22.0.1, SVG Export Plug-In . SVG Version: 6.00 Build 0)  -->
<svg version="1.1" id="레이어_1" xmlns="http://www.w3.org/2000/svg" xmlns:xlink="http://www.w3.org/1999/xlink" x="0px"
	 y="0px" viewBox="0 0 77.3 86.4" style="enable-background:new 0 0 77.3 86.4;" xml:space="preserve">
<style type="text/css">
	.st0{fill:#FFFFFF;}
</style>
<g>
	<g>
		<path class="st0" d="M76.3,45.3c0-0.4-0.3-0.8-0.8-0.8l-2.4-0.3c0.1-1.6,0.1-3,0.1-4.2h0c0-21.5-16.2-39-36.1-39
			C17.8,1,2,17.5,1.1,38.2c0,0.1,0,0.2,0,0.3C0.9,42.2,0.9,53.1,6,60.3c0.4,0.6,1.1,0.9,1.8,0.7l5.9-1.6c0.8-0.2,1.3-0.9,1.2-1.7
			c-0.4-3.8-1.6-14.6-5-20.7c-0.3-0.6-1-0.9-1.7-0.8l-2.7,0.4C7.2,19.2,20.7,5.7,37.2,5.7c16.4,0,30,13.5,31.6,30.8L66,36.1
			c-0.7-0.1-1.3,0.2-1.7,0.8c-3.4,6.1-4.6,16.9-5,20.7c-0.1,0.8,0.4,1.5,1.2,1.7l5.9,1.6c0.7,0.2,1.4-0.1,1.8-0.7
			c0.8-1.1,1.5-2.4,2-3.6l1,0.3C70,72,56.8,83.7,40.7,83.7c-1.3,0-2.6-0.1-3.9-0.3l0.3-2.1c0.1-0.4-0.1-0.8-0.5-0.9
			c-3.8-1.9-10.5-2.6-12.8-2.8c-0.5,0-1,0.2-1.1,0.7l-1,3.3c-0.1,0.4,0.1,0.8,0.4,1c4.5,2.9,11.2,2.8,13.6,2.7
			c0.3,0,0.5-0.1,0.7-0.3c1.4,0.2,2.9,0.3,4.4,0.3c16.9,0,30.8-12.3,32.3-28c0.2,0,0.4-0.2,0.6-0.4C76.4,53.2,76.4,47.4,76.3,45.3z"
			/>
	</g>
	<g>
		<g>
			<path class="st0" d="M36.4,51.3c-0.7,0-1.3-0.2-1.8-0.7c-0.5-0.4-0.7-1.1-0.7-1.9c0-1.2,0.1-2.2,0.4-3.1c0.3-0.9,0.7-1.7,1.2-2.3
				c0.5-0.7,1.1-1.3,1.7-1.8c0.7-0.6,1.4-1.1,2.1-1.7c1-0.8,1.8-1.7,2.4-2.5c0.5-0.8,0.8-1.9,0.8-3.3c0-1.2-0.4-2.3-1.3-3.1
				c-0.9-0.8-2.1-1.3-3.8-1.3c-1.5,0-2.7,0.5-3.6,1.6c-0.9,1.1-1.4,2.5-1.4,4.2c0,0.9-0.4,1.5-0.9,1.9c-0.6,0.4-1.2,0.6-1.8,0.5
				c-0.9-0.1-1.6-0.4-1.9-0.9c-0.3-0.6-0.5-1.1-0.5-1.8c-0.1-1.5,0.1-2.9,0.6-4.2c0.5-1.3,1.1-2.4,2-3.3c0.9-0.9,2-1.6,3.3-2.2
				c1.3-0.5,2.8-0.8,4.4-0.8c1.8,0,3.3,0.2,4.6,0.7s2.4,1.1,3.2,2c0.8,0.8,1.4,1.8,1.9,3c0.4,1.1,0.6,2.4,0.6,3.7
				c0,1.1-0.1,2.1-0.4,2.9c-0.3,0.9-0.6,1.7-1,2.4c-0.4,0.7-0.9,1.4-1.5,2c-0.6,0.6-1.2,1.1-1.8,1.6c-0.8,0.6-1.4,1.2-1.9,1.6
				c-0.5,0.5-0.9,0.9-1.2,1.4c-0.3,0.4-0.5,0.9-0.6,1.3c-0.1,0.4-0.2,0.9-0.2,1.4c0,0.7-0.2,1.2-0.7,1.7
				C37.9,51.1,37.2,51.3,36.4,51.3z M36.5,60.6c-1.1,0-1.9-0.3-2.4-0.9c-0.5-0.6-0.8-1.4-0.8-2.2c0-0.9,0.3-1.7,0.9-2.3
				s1.4-0.9,2.3-0.9c1,0,1.7,0.3,2.3,1c0.6,0.7,0.9,1.4,0.9,2.2c0,0.9-0.3,1.7-0.9,2.3C38.1,60.3,37.4,60.6,36.5,60.6z"/>
		</g>
	</g>
</g>
</svg>
