<?xml version="1.0" encoding="utf-8"?>
<!-- Generator: Adobe Illustrator 22.0.1, SVG Export Plug-In . SVG Version: 6.00 Build 0)  -->
<svg version="1.1" id="레이어_1" xmlns="http://www.w3.org/2000/svg" xmlns:xlink="http://www.w3.org/1999/xlink" x="0px"
	 y="0px" viewBox="0 0 74.7 74.7" style="enable-background:new 0 0 74.7 74.7;" xml:space="preserve">
<style type="text/css">
	.st0{fill:#1A8FFF;}
	.st1{fill:#FFFFFF;}
</style>
<rect class="st0" width="74.7" height="74.7"/>
<g>
	<g>
		<path class="st1" d="M57.4,38.5c0-0.2-0.2-0.4-0.4-0.4l-1.3-0.2c0.1-0.9,0.1-1.6,0.1-2.2l0,0c0-11.4-8.6-20.7-19.2-20.7
			c-10.3,0-18.7,8.8-19.2,19.8v0.1c-0.1,2-0.1,7.8,2.6,11.6c0.2,0.3,0.6,0.5,1,0.4l3.1-0.9c0.4-0.1,0.7-0.5,0.6-0.9
			c-0.2-2-0.9-7.8-2.7-11c-0.2-0.3-0.5-0.5-0.9-0.4l-1.4,0.2c0.9-9.2,8.1-16.4,16.8-16.4s15.9,7.2,16.8,16.4l-1.4-0.2
			c-0.4-0.1-0.7,0.1-0.9,0.4c-1.8,3.2-2.5,9-2.7,11c0,0.4,0.2,0.8,0.6,0.9l3.1,0.9c0.4,0.1,0.7,0,1-0.4c0.4-0.6,0.8-1.3,1.1-1.9
			l0.5,0.1c-0.7,8-7.7,14.2-16.3,14.2c-0.7,0-1.4-0.1-2.1-0.1l0.2-1.1c0-0.2-0.1-0.4-0.3-0.5c-2-1-5.6-1.4-6.8-1.5
			c-0.3,0-0.5,0.1-0.6,0.4l-0.5,1.8c-0.1,0.2,0,0.4,0.2,0.5c2.4,1.5,6,1.5,7.2,1.5c0.1,0,0.3-0.1,0.3-0.1c0.8,0.1,1.6,0.2,2.3,0.2
			c9,0,16.4-6.5,17.2-14.9c0.1,0,0.2-0.1,0.3-0.2C57.4,42.6,57.4,39.5,57.4,38.5z"/>
	</g>
	<g>
		<g>
			<path class="st1" d="M36.1,41.7c-0.4,0-0.7-0.1-1-0.4c-0.3-0.2-0.4-0.6-0.4-1c0-0.6,0.1-1.2,0.2-1.6c0.2-0.5,0.4-0.9,0.6-1.2
				c0.3-0.4,0.6-0.7,0.9-1c0.4-0.3,0.7-0.6,1.1-0.9c0.6-0.4,1-0.9,1.3-1.3c0.3-0.4,0.4-1,0.4-1.8c0-0.6-0.2-1.2-0.7-1.6
				s-1.1-0.7-2-0.7c-0.8,0-1.4,0.3-1.9,0.9s-0.7,1.3-0.8,2.2c0,0.5-0.2,0.8-0.5,1s-0.6,0.3-1,0.3c-0.5,0-0.8-0.2-1-0.5
				S31,33.5,31,33.2c0-0.8,0.1-1.5,0.3-2.2c0.2-0.7,0.6-1.3,1.1-1.7c0.5-0.5,1.1-0.9,1.7-1.1c0.7-0.3,1.5-0.4,2.3-0.4
				c0.9,0,1.7,0.1,2.4,0.4s1.3,0.6,1.7,1.1c0.4,0.4,0.8,1,1,1.6s0.3,1.3,0.3,2c0,0.6-0.1,1.1-0.2,1.6c-0.1,0.5-0.3,0.9-0.5,1.3
				c-0.2,0.4-0.5,0.7-0.8,1.1c-0.3,0.3-0.6,0.6-1,0.9c-0.4,0.3-0.7,0.6-1,0.9c-0.3,0.3-0.5,0.5-0.6,0.7s-0.2,0.5-0.3,0.7
				s-0.1,0.5-0.1,0.7c0,0.4-0.1,0.7-0.4,0.9C36.9,41.5,36.6,41.7,36.1,41.7z M36.2,46.6c-0.6,0-1-0.2-1.3-0.5s-0.4-0.7-0.4-1.2
				s0.2-0.9,0.5-1.2s0.7-0.5,1.2-0.5s0.9,0.2,1.2,0.5c0.3,0.4,0.5,0.7,0.5,1.2s-0.2,0.9-0.5,1.2S36.6,46.6,36.2,46.6z"/>
		</g>
	</g>
</g>
</svg>
