<?xml version="1.0" encoding="utf-8"?>
<!-- Generator: Adobe Illustrator 22.0.1, SVG Export Plug-In . SVG Version: 6.00 Build 0)  -->
<svg version="1.1" id="레이어_1" xmlns="http://www.w3.org/2000/svg" xmlns:xlink="http://www.w3.org/1999/xlink" x="0px"
	 y="0px" viewBox="0 0 382.6 28.2" style="enable-background:new 0 0 382.6 28.2;" xml:space="preserve">
<style type="text/css">
	.st0{fill:#1A8FFF;}
</style>
<g>
	<g>
		<path class="st0" d="M13.7,5.1c-1.1,0-2.2,0.2-3.2,0.6c-1,0.4-1.9,1-2.6,1.8c-0.7,0.8-1.3,1.7-1.7,2.8c-0.4,1.1-0.6,2.4-0.6,3.8
			c0,1.2,0.2,2.4,0.5,3.5s0.8,2,1.6,2.8c0.7,0.8,1.6,1.4,2.6,1.9c1,0.5,2.3,0.7,3.7,0.7c1.5,0,2.8-0.4,4-1.1c1.2-0.7,2.2-1.6,3-2.5
			c0.6-0.7,1.1-1.1,1.7-1.2c0.6-0.1,1.1,0,1.6,0.2c0.3,0.2,0.5,0.4,0.7,0.7c0.2,0.3,0.3,0.6,0.3,1c0,0.5-0.2,1.1-0.7,1.8
			c-1.5,1.9-3.2,3.2-5,4.1c-1.8,0.8-3.7,1.2-5.5,1.2c-2,0-3.7-0.3-5.3-0.9c-1.6-0.6-3-1.5-4.1-2.6s-2-2.5-2.6-4.1
			C1.3,18,1,16.2,1,14.1c0-1.9,0.3-3.7,0.9-5.3c0.6-1.6,1.4-3,2.5-4.2c1.1-1.2,2.4-2.1,4-2.7c1.6-0.6,3.4-1,5.4-1
			c2,0,3.9,0.4,5.6,1.2c1.8,0.8,3.4,2.2,4.9,4c0.3,0.3,0.5,0.7,0.5,1C25,7.5,25,7.8,25,8.1c0,0.4-0.1,0.8-0.3,1
			c-0.2,0.3-0.4,0.5-0.7,0.7c-0.5,0.3-1,0.4-1.6,0.2c-0.6-0.1-1.1-0.5-1.7-1.2c-0.8-1-1.8-1.8-3-2.6C16.6,5.5,15.2,5.1,13.7,5.1z"/>
		<path class="st0" d="M42.9,27.2c-1.7,0-3.3-0.3-4.9-0.9c-1.6-0.6-2.9-1.4-4.1-2.5c-1.2-1.1-2.2-2.5-2.9-4.1S30,16.2,30,14.1
			c0-1.9,0.3-3.6,0.9-5.2c0.6-1.6,1.5-3,2.6-4.2C34.7,3.6,36,2.6,37.6,2c1.6-0.7,3.3-1,5.3-1c1.7,0,3.4,0.3,5,0.9
			c1.6,0.6,2.9,1.5,4.1,2.7c1.2,1.2,2.1,2.5,2.8,4.1c0.7,1.6,1.1,3.4,1.1,5.4c0,2-0.3,3.7-1,5.3c-0.7,1.6-1.6,3-2.8,4.1
			c-1.2,1.2-2.5,2-4.1,2.7C46.4,26.9,44.7,27.2,42.9,27.2z M42.9,5.2c-1.2,0-2.3,0.2-3.3,0.6s-1.9,1-2.7,1.8
			c-0.8,0.8-1.4,1.7-1.8,2.8c-0.5,1.1-0.7,2.4-0.7,3.8c0,1.2,0.2,2.4,0.5,3.5c0.4,1.1,0.9,2,1.6,2.8c0.7,0.8,1.6,1.5,2.7,1.9
			c1,0.5,2.3,0.7,3.7,0.7c1,0,2-0.2,3.1-0.5s1.9-0.9,2.7-1.6c0.8-0.7,1.5-1.7,2-2.8c0.5-1.1,0.7-2.5,0.7-4c0-1.3-0.2-2.4-0.6-3.5
			c-0.4-1.1-1-2-1.8-2.9c-0.8-0.8-1.7-1.4-2.7-1.9C45.3,5.4,44.1,5.2,42.9,5.2z"/>
		<path class="st0" d="M80.3,24.7c0,0.6-0.2,1.1-0.5,1.6c-0.4,0.5-0.9,0.7-1.6,0.7c-0.5,0-0.9-0.1-1.1-0.3c-0.3-0.2-0.5-0.4-0.8-0.8
			l-9.8-15c-0.2-0.3-0.4-0.5-0.5-0.5c-0.1,0-0.2,0.2-0.2,0.6V25c0,0.5-0.1,0.9-0.2,1.2c-0.2,0.3-0.4,0.5-0.6,0.7
			c-0.2,0.2-0.5,0.2-0.8,0.3c-0.3,0-0.5,0.1-0.7,0.1c-0.5,0-1-0.2-1.4-0.5c-0.4-0.3-0.7-0.9-0.7-1.8V3.3c0-0.8,0.2-1.4,0.7-1.7
			C62.5,1.2,63,1,63.5,1c0.4,0,0.8,0.1,1.1,0.3C65,1.5,65.2,1.8,65.4,2l9.9,15.3c0.1,0.1,0.1,0.1,0.2,0.2c0.1,0.1,0.2,0.1,0.3,0.1
			c0.1,0,0.2-0.2,0.2-0.5v-12c-0.3-0.2-0.6-0.5-0.8-0.8c-0.2-0.3-0.3-0.7-0.3-1.1c0-0.6,0.2-1.1,0.6-1.5C75.9,1.2,76.4,1,77,1
			c0.9,0,1.6,0.3,2.2,0.9c0.6,0.6,0.9,1.3,1.1,2V24.7z"/>
		<path class="st0" d="M95,5.1c-0.5,0-1.1,0-1.6,0.1s-1,0.3-1.5,0.5s-0.8,0.6-1.1,1c-0.3,0.4-0.4,0.9-0.4,1.6c0,0.7,0.2,1.2,0.7,1.6
			c0.4,0.4,0.9,0.8,1.4,1c0.5,0.3,1.1,0.5,1.7,0.6c0.6,0.1,1.1,0.2,1.5,0.3c2.3,0.5,4.1,1.1,5.4,1.8c1.3,0.7,2.2,1.4,2.8,2.2
			c0.6,0.8,1,1.5,1.1,2.3c0.1,0.8,0.2,1.5,0.2,2.1c0,1.2-0.3,2.2-0.9,3.1c-0.6,0.9-1.3,1.6-2.3,2.2s-2,1-3.2,1.3
			c-1.2,0.3-2.4,0.4-3.7,0.3c-0.9,0-1.9-0.2-2.9-0.5c-1-0.3-1.9-0.7-2.8-1.3c-0.9-0.6-1.7-1.3-2.4-2.2c-0.7-0.9-1.3-2-1.6-3.3
			c-0.2-0.7-0.2-1.3,0-1.8c0.2-0.5,0.5-0.9,1.1-1.1c0.7-0.3,1.4-0.3,1.9,0.1c0.5,0.4,0.9,0.9,1.1,1.8c0.3,0.8,0.7,1.5,1.1,2.1
			c0.4,0.5,0.9,1,1.5,1.3c0.5,0.3,1.1,0.6,1.7,0.7c0.6,0.1,1.2,0.2,1.8,0.2c0.7,0,1.3,0,1.9-0.1s1.2-0.3,1.7-0.5s0.9-0.6,1.2-1
			c0.3-0.4,0.4-0.9,0.4-1.4c0-1.1-0.5-2-1.4-2.6s-2.6-1.2-4.9-1.6c-0.9-0.2-1.8-0.4-2.8-0.7c-1-0.3-1.9-0.8-2.7-1.3
			c-0.8-0.6-1.5-1.3-2.1-2.2S86,9.7,86,8.4c0-1.6,0.3-2.8,0.9-3.8c0.6-1,1.4-1.7,2.3-2.3S91,1.4,92,1.3c1-0.2,2-0.3,2.9-0.3
			c0.7,0,1.4,0.1,2.2,0.2c0.8,0.1,1.6,0.4,2.4,0.7c0.8,0.3,1.6,0.8,2.3,1.4s1.4,1.3,1.9,2.1c0.4,0.6,0.6,1.1,0.6,1.6
			c0,0.6-0.3,1.1-0.9,1.5c-0.4,0.2-0.7,0.3-1,0.3c-0.3,0-0.6-0.1-0.9-0.2c-0.3-0.1-0.5-0.3-0.8-0.5c-0.2-0.2-0.5-0.4-0.6-0.6
			c-0.8-0.9-1.6-1.5-2.5-1.9C96.8,5.4,95.9,5.2,95,5.1z"/>
		<path class="st0" d="M110,5.1c-0.3-0.2-0.6-0.5-0.8-0.8c-0.2-0.3-0.3-0.7-0.3-1.1c0-0.6,0.2-1.1,0.6-1.5c0.4-0.4,0.9-0.6,1.6-0.6
			c0.9,0,1.6,0.3,2.2,0.9s0.9,1.3,1.1,2v14.1c0,1.5,0.4,2.8,1.3,3.7c0.9,0.9,2.2,1.4,3.8,1.4c1.8,0,3.1-0.5,3.9-1.4
			c0.8-0.9,1.2-2.1,1.2-3.6v-13c-0.3-0.2-0.5-0.5-0.7-0.9s-0.3-0.7-0.3-1.1c0-0.6,0.2-1.1,0.6-1.5c0.4-0.4,0.9-0.6,1.6-0.6
			c0.9,0,1.7,0.3,2.2,0.9c0.5,0.6,0.9,1.3,1.1,2v14.6c0,1.4-0.3,2.6-0.8,3.7c-0.5,1.1-1.2,2-2.1,2.7s-1.9,1.3-3,1.7
			c-1.2,0.4-2.4,0.6-3.6,0.6c-1.4,0-2.7-0.2-3.8-0.6c-1.2-0.4-2.2-1-3-1.8c-0.8-0.8-1.5-1.7-2-2.7c-0.5-1.1-0.7-2.2-0.7-3.5V5.1z"/>
		<path class="st0" d="M135.9,26.3c-0.6-0.4-0.8-1.2-0.8-2.3v-19c-0.3-0.2-0.6-0.5-0.8-0.8c-0.2-0.3-0.3-0.7-0.3-1.1
			c0-0.6,0.2-1.1,0.6-1.5c0.4-0.4,0.9-0.6,1.6-0.6c0.9,0,1.6,0.3,2.2,0.9c0.6,0.6,0.9,1.3,1.1,2v18c0,0.4,0.1,0.6,0.3,0.7
			c0.2,0.1,0.5,0.2,0.9,0.2h11.2c0.6,0,1.1,0.2,1.5,0.6s0.6,0.9,0.6,1.6c0,0.6-0.2,1.1-0.5,1.5c-0.4,0.4-0.9,0.6-1.6,0.6h-14
			C137.1,27,136.4,26.8,135.9,26.3z"/>
		<path class="st0" d="M164,27.2c-0.6,0-1.1-0.2-1.6-0.5c-0.5-0.3-0.7-0.9-0.7-1.8V6.7c0-0.6-0.1-0.9-0.3-1.1s-0.4-0.2-0.7-0.2h-4.4
			c-0.5,0-1-0.1-1.3-0.2s-0.6-0.3-0.7-0.5c-0.2-0.2-0.3-0.4-0.3-0.7C154,3.8,154,3.5,154,3.3c0-0.2,0-0.4,0.1-0.7
			c0.1-0.2,0.2-0.5,0.4-0.7c0.2-0.2,0.4-0.4,0.7-0.5c0.3-0.1,0.7-0.2,1.2-0.2h15.3c0.5,0,0.9,0.1,1.2,0.2c0.3,0.2,0.6,0.3,0.7,0.5
			c0.2,0.2,0.3,0.4,0.4,0.7c0.1,0.2,0.1,0.5,0.1,0.6c0,0.5-0.2,1-0.5,1.4c-0.4,0.5-1,0.7-1.9,0.7h-4.5c-0.3,0-0.5,0.1-0.7,0.2
			s-0.3,0.5-0.3,1.1v18.3c0,0.7-0.2,1.2-0.6,1.6C165.2,27,164.7,27.2,164,27.2z"/>
		<path class="st0" d="M189.6,21.1c-0.2-0.6-0.7-0.9-1.5-0.9h-6.8c-0.5,0-0.9,0.2-1,0.6l-1.7,4.9c-0.2,0.7-0.7,1.1-1.4,1.4
			c-0.7,0.2-1.3,0.2-1.9-0.2c-0.5-0.2-0.8-0.6-0.9-1.2c-0.1-0.6-0.1-1.1,0.1-1.6l7.3-21c0.3-0.8,0.7-1.3,1.3-1.7
			c0.6-0.3,1.2-0.5,1.8-0.5c0.6,0,1.2,0.2,1.7,0.5c0.6,0.3,1,0.9,1.2,1.7l7.3,21c0.1,0.5,0.2,1,0.1,1.6c-0.1,0.6-0.4,1-0.9,1.2
			c-0.7,0.3-1.4,0.4-2,0.2c-0.7-0.2-1.1-0.7-1.3-1.4L189.6,21.1z M185.1,7.2C185.1,7,185,7,185,7c-0.1,0-0.1,0.1-0.1,0.2l-2.7,8.3
			c-0.1,0.2-0.1,0.4,0,0.5s0.2,0.1,0.4,0.1h4.8c0.3,0,0.4-0.2,0.3-0.5L185.1,7.2z"/>
		<path class="st0" d="M205.9,27.2c-0.6,0-1.1-0.2-1.6-0.5c-0.5-0.3-0.7-0.9-0.7-1.8V6.7c0-0.6-0.1-0.9-0.3-1.1s-0.4-0.2-0.7-0.2
			h-4.4c-0.5,0-1-0.1-1.3-0.2s-0.6-0.3-0.7-0.5c-0.2-0.2-0.3-0.4-0.3-0.7c-0.1-0.2-0.1-0.5-0.1-0.8c0-0.2,0-0.4,0.1-0.7
			c0.1-0.2,0.2-0.5,0.4-0.7c0.2-0.2,0.4-0.4,0.7-0.5c0.3-0.1,0.7-0.2,1.2-0.2h15.3c0.5,0,0.9,0.1,1.2,0.2c0.3,0.2,0.6,0.3,0.7,0.5
			c0.2,0.2,0.3,0.4,0.4,0.7c0.1,0.2,0.1,0.5,0.1,0.6c0,0.5-0.2,1-0.5,1.4c-0.4,0.5-1,0.7-1.9,0.7H209c-0.3,0-0.5,0.1-0.7,0.2
			S208,6.1,208,6.7v18.3c0,0.7-0.2,1.2-0.6,1.6C207,27,206.5,27.2,205.9,27.2z"/>
		<path class="st0" d="M221.9,22.7c0.1,0,0.3,0,0.3-0.1s0.1-0.2,0.1-0.4V5.8c0-0.2,0-0.4-0.1-0.4s-0.2-0.1-0.3-0.1h-0.4
			c-0.5,0-1-0.1-1.3-0.2c-0.3-0.1-0.6-0.3-0.7-0.5c-0.2-0.2-0.3-0.4-0.3-0.7s-0.1-0.5-0.1-0.8c0-0.4,0.2-0.9,0.5-1.3
			c0.3-0.5,1-0.7,1.9-0.7h5.9c1,0,1.6,0.2,2,0.7c0.3,0.5,0.5,0.9,0.5,1.3c0,0.5-0.2,1-0.6,1.4s-1,0.7-1.9,0.7h-0.3
			c-0.2,0-0.3,0-0.3,0.1c-0.1,0-0.1,0.2-0.1,0.4v16.4c0,0.2,0,0.4,0.1,0.4c0.1,0,0.2,0.1,0.3,0.1h0.3c1,0,1.6,0.2,2,0.7
			c0.3,0.5,0.5,0.9,0.5,1.3c0,0.5-0.2,0.9-0.6,1.4s-1,0.7-1.9,0.7h-5.9c-1,0-1.7-0.2-2-0.7c-0.3-0.4-0.4-0.9-0.4-1.4
			c0-0.5,0.2-0.9,0.5-1.4c0.3-0.5,1-0.7,1.9-0.7H221.9z"/>
		<path class="st0" d="M247,27.2c-1.7,0-3.3-0.3-4.9-0.9c-1.6-0.6-2.9-1.4-4.1-2.5c-1.2-1.1-2.2-2.5-2.9-4.1
			c-0.7-1.6-1.1-3.5-1.1-5.6c0-1.9,0.3-3.6,0.9-5.2c0.6-1.6,1.5-3,2.6-4.2s2.5-2.1,4.1-2.7c1.6-0.7,3.3-1,5.3-1c1.7,0,3.4,0.3,5,0.9
			c1.6,0.6,2.9,1.5,4.1,2.7c1.2,1.2,2.1,2.5,2.8,4.1c0.7,1.6,1.1,3.4,1.1,5.4c0,2-0.3,3.7-1,5.3c-0.7,1.6-1.6,3-2.8,4.1
			c-1.2,1.2-2.5,2-4.1,2.7C250.5,26.9,248.8,27.2,247,27.2z M247,5.2c-1.2,0-2.3,0.2-3.3,0.6s-1.9,1-2.7,1.8
			c-0.8,0.8-1.4,1.7-1.8,2.8c-0.5,1.1-0.7,2.4-0.7,3.8c0,1.2,0.2,2.4,0.5,3.5c0.4,1.1,0.9,2,1.6,2.8c0.7,0.8,1.6,1.5,2.7,1.9
			c1,0.5,2.3,0.7,3.7,0.7c1,0,2-0.2,3.1-0.5s1.9-0.9,2.7-1.6c0.8-0.7,1.5-1.7,2-2.8s0.7-2.5,0.7-4c0-1.3-0.2-2.4-0.6-3.5
			c-0.4-1.1-1-2-1.8-2.9c-0.8-0.8-1.7-1.4-2.7-1.9C249.4,5.4,248.2,5.2,247,5.2z"/>
		<path class="st0" d="M284.5,24.7c0,0.6-0.2,1.1-0.5,1.6c-0.4,0.5-0.9,0.7-1.6,0.7c-0.5,0-0.9-0.1-1.1-0.3
			c-0.3-0.2-0.5-0.4-0.8-0.8l-9.8-15c-0.2-0.3-0.4-0.5-0.5-0.5c-0.1,0-0.2,0.2-0.2,0.6V25c0,0.5-0.1,0.9-0.2,1.2
			c-0.2,0.3-0.4,0.5-0.6,0.7c-0.2,0.2-0.5,0.2-0.8,0.3c-0.3,0-0.5,0.1-0.7,0.1c-0.5,0-1-0.2-1.4-0.5c-0.5-0.3-0.7-0.9-0.7-1.8V3.3
			c0-0.8,0.2-1.4,0.7-1.7c0.4-0.4,0.9-0.6,1.5-0.6c0.4,0,0.8,0.1,1.1,0.3c0.3,0.2,0.6,0.4,0.7,0.7l9.9,15.3c0.1,0.1,0.1,0.1,0.2,0.2
			c0.1,0.1,0.1,0.1,0.3,0.1c0.1,0,0.2-0.2,0.2-0.5v-12c-0.3-0.2-0.6-0.5-0.8-0.8c-0.2-0.3-0.3-0.7-0.3-1.1c0-0.6,0.2-1.1,0.6-1.5
			c0.4-0.4,0.9-0.6,1.6-0.6c0.9,0,1.6,0.3,2.2,0.9s0.9,1.3,1.1,2V24.7z"/>
		<path class="st0" d="M302.4,26.3c-0.6-0.4-0.8-1.2-0.8-2.3v-19c-0.3-0.2-0.6-0.5-0.8-0.8c-0.2-0.3-0.3-0.7-0.3-1.1
			c0-0.6,0.2-1.1,0.6-1.5c0.4-0.4,0.9-0.6,1.6-0.6c0.9,0,1.6,0.3,2.2,0.9c0.6,0.6,0.9,1.3,1.1,2v18c0,0.4,0.1,0.6,0.3,0.7
			c0.2,0.1,0.5,0.2,0.9,0.2h11.2c0.6,0,1.1,0.2,1.5,0.6s0.6,0.9,0.6,1.6c0,0.6-0.2,1.1-0.5,1.5c-0.4,0.4-0.9,0.6-1.6,0.6h-14
			C303.6,27,302.9,26.8,302.4,26.3z"/>
		<path class="st0" d="M326.3,22.7c0.1,0,0.3,0,0.3-0.1s0.1-0.2,0.1-0.4V5.8c0-0.2,0-0.4-0.1-0.4s-0.2-0.1-0.3-0.1h-0.4
			c-0.5,0-1-0.1-1.3-0.2c-0.3-0.1-0.6-0.3-0.7-0.5c-0.2-0.2-0.3-0.4-0.3-0.7s-0.1-0.5-0.1-0.8c0-0.4,0.2-0.9,0.5-1.3
			c0.3-0.5,1-0.7,1.9-0.7h5.9c1,0,1.6,0.2,2,0.7c0.3,0.5,0.5,0.9,0.5,1.3c0,0.5-0.2,1-0.6,1.4s-1,0.7-1.9,0.7h-0.3
			c-0.2,0-0.3,0-0.3,0.1c-0.1,0-0.1,0.2-0.1,0.4v16.4c0,0.2,0,0.4,0.1,0.4c0.1,0,0.2,0.1,0.3,0.1h0.3c1,0,1.6,0.2,2,0.7
			c0.3,0.5,0.5,0.9,0.5,1.3c0,0.5-0.2,0.9-0.6,1.4s-1,0.7-1.9,0.7h-5.9c-1,0-1.7-0.2-2-0.7c-0.3-0.4-0.4-0.9-0.4-1.4
			c0-0.5,0.2-0.9,0.5-1.4c0.3-0.5,1-0.7,1.9-0.7H326.3z"/>
		<path class="st0" d="M347.7,5.1c-0.5,0-1.1,0-1.6,0.1c-0.5,0.1-1,0.3-1.5,0.5c-0.5,0.2-0.8,0.6-1.1,1c-0.3,0.4-0.4,0.9-0.4,1.6
			c0,0.7,0.2,1.2,0.7,1.6c0.4,0.4,0.9,0.8,1.4,1c0.5,0.3,1.1,0.5,1.7,0.6c0.6,0.1,1.1,0.2,1.5,0.3c2.3,0.5,4.1,1.1,5.4,1.8
			c1.3,0.7,2.2,1.4,2.8,2.2c0.6,0.8,1,1.5,1.1,2.3c0.1,0.8,0.2,1.5,0.2,2.1c0,1.2-0.3,2.2-0.9,3.1c-0.6,0.9-1.4,1.6-2.3,2.2
			c-0.9,0.6-2,1-3.2,1.3c-1.2,0.3-2.4,0.4-3.7,0.3c-0.9,0-1.9-0.2-2.9-0.5c-1-0.3-1.9-0.7-2.8-1.3c-0.9-0.6-1.7-1.3-2.4-2.2
			s-1.3-2-1.6-3.3c-0.2-0.7-0.2-1.3,0-1.8s0.5-0.9,1.1-1.1c0.8-0.3,1.4-0.3,1.9,0.1c0.5,0.4,0.9,0.9,1.1,1.8
			c0.3,0.8,0.7,1.5,1.1,2.1c0.4,0.5,0.9,1,1.5,1.3c0.5,0.3,1.1,0.6,1.7,0.7c0.6,0.1,1.2,0.2,1.8,0.2c0.7,0,1.3,0,1.9-0.1
			s1.2-0.3,1.7-0.5s0.9-0.6,1.2-1c0.3-0.4,0.4-0.9,0.4-1.4c0-1.1-0.5-2-1.4-2.6s-2.6-1.2-4.9-1.6c-0.9-0.2-1.8-0.4-2.8-0.7
			c-1-0.3-1.9-0.8-2.7-1.3c-0.8-0.6-1.5-1.3-2.1-2.2c-0.6-0.9-0.8-2-0.9-3.3c0-1.6,0.3-2.8,0.9-3.8c0.6-1,1.4-1.7,2.3-2.3
			c0.9-0.5,1.9-0.9,2.9-1.1c1-0.2,2-0.3,2.9-0.3c0.7,0,1.4,0.1,2.2,0.2c0.8,0.1,1.6,0.4,2.4,0.7c0.8,0.3,1.6,0.8,2.3,1.4
			c0.7,0.6,1.4,1.3,1.9,2.1c0.4,0.6,0.6,1.1,0.6,1.6c0,0.6-0.3,1.1-0.9,1.5c-0.4,0.2-0.7,0.3-1,0.3s-0.6-0.1-0.9-0.2
			c-0.3-0.1-0.5-0.3-0.8-0.5c-0.2-0.2-0.5-0.4-0.6-0.6c-0.8-0.9-1.6-1.5-2.5-1.9C349.5,5.4,348.6,5.2,347.7,5.1z"/>
		<path class="st0" d="M371.5,27.2c-0.6,0-1.1-0.2-1.6-0.5c-0.5-0.3-0.7-0.9-0.7-1.8V6.7c0-0.6-0.1-0.9-0.3-1.1s-0.4-0.2-0.7-0.2
			h-4.4c-0.5,0-1-0.1-1.3-0.2s-0.6-0.3-0.7-0.5c-0.2-0.2-0.3-0.4-0.3-0.7c-0.1-0.2-0.1-0.5-0.1-0.8c0-0.2,0-0.4,0.1-0.7
			c0.1-0.2,0.2-0.5,0.4-0.7c0.2-0.2,0.4-0.4,0.7-0.5c0.3-0.1,0.7-0.2,1.2-0.2h15.3c0.5,0,0.9,0.1,1.2,0.2c0.3,0.2,0.6,0.3,0.7,0.5
			c0.2,0.2,0.3,0.4,0.4,0.7c0.1,0.2,0.1,0.5,0.1,0.6c0,0.5-0.2,1-0.5,1.4c-0.4,0.5-1,0.7-1.9,0.7h-4.5c-0.3,0-0.5,0.1-0.7,0.2
			s-0.3,0.5-0.3,1.1v18.3c0,0.7-0.2,1.2-0.6,1.6C372.7,27,372.2,27.2,371.5,27.2z"/>
	</g>
</g>
</svg>
