<?xml version="1.0" encoding="utf-8"?>
<!-- Generator: Adobe Illustrator 22.0.1, SVG Export Plug-In . SVG Version: 6.00 Build 0)  -->
<svg version="1.1" id="레이어_1" xmlns="http://www.w3.org/2000/svg" xmlns:xlink="http://www.w3.org/1999/xlink" x="0px"
	 y="0px" viewBox="0 0 19.3 19.3" style="enable-background:new 0 0 19.3 19.3;" xml:space="preserve">
<style type="text/css">
	.st0{fill:#1A8FFF;}
	.st1{fill:#FFFFFF;}
</style>
<g>
	<circle class="st0" cx="9.7" cy="9.7" r="8.7"/>
	<g>
		<path class="st1" d="M12.2,6.9v5.7c0,0.1,0,0.3-0.1,0.4c-0.1,0.1-0.2,0.2-0.3,0.2c-0.2,0-0.3-0.1-0.4-0.2L8.6,8.8
			c0,0,0-0.1-0.1-0.1S8.4,8.6,8.3,8.6c-0.1,0-0.1,0-0.1,0.1c0,0.1,0,0.1,0,0.2v3.8c0,0.1,0,0.2-0.1,0.3C8.1,12.9,8,13,8,13
			c-0.1,0-0.1,0.1-0.2,0.1c-0.1,0-0.1,0-0.1,0c-0.1,0-0.2,0-0.3-0.1c-0.1-0.1-0.1-0.2-0.1-0.4V6.7c0-0.2,0.1-0.3,0.1-0.4
			c0.1-0.1,0.2-0.1,0.3-0.1c0.1,0,0.2,0,0.2,0.1C8,6.3,8,6.4,8.1,6.4l2.7,4.1c0,0,0,0.1,0.1,0.1c0,0,0.1,0.1,0.2,0.1
			c0.1,0,0.2-0.1,0.2-0.3V7.2C11.1,7.1,11,7,11,7s-0.1-0.2-0.1-0.3c0-0.1,0-0.3,0.1-0.3c0.1-0.1,0.2-0.1,0.3-0.1
			c0.2,0,0.4,0.1,0.5,0.2S12.1,6.7,12.2,6.9z"/>
	</g>
</g>
</svg>
