<?xml version="1.0" encoding="utf-8"?>
<!-- Generator: Adobe Illustrator 22.0.1, SVG Export Plug-In . SVG Version: 6.00 Build 0)  -->
<svg version="1.1" id="레이어_1" xmlns="http://www.w3.org/2000/svg" xmlns:xlink="http://www.w3.org/1999/xlink" x="0px"
	 y="0px" viewBox="0 0 52 22" style="enable-background:new 0 0 52 22;" xml:space="preserve">
<style type="text/css">
	.st0{fill:#FED322;}
	.st1{fill:#FFFFFF;}
</style>
<g>
	<path class="st0" d="M51,16c0,2.8-2.2,5-5,5H6c-2.8,0-5-2.2-5-5V6c0-2.8,2.2-5,5-5h40c2.8,0,5,2.2,5,5V16z"/>
	<g>
		<g>
			<path class="st1" d="M15.3,7.2c0.5,0,0.9,0.1,1.4,0.2s0.8,0.4,1.1,0.6s0.6,0.6,0.7,1.1c0.2,0.4,0.3,0.9,0.3,1.4V14
				c0,0.3-0.1,0.5-0.3,0.7c-0.2,0.1-0.4,0.2-0.6,0.2c-0.3,0-0.5-0.1-0.6-0.3c-0.2-0.2-0.2-0.4-0.2-0.6v-3.2c0-0.6-0.1-1.1-0.4-1.4
				s-0.7-0.5-1.3-0.5c-0.6,0-1,0.2-1.3,0.5c-0.3,0.4-0.5,0.8-0.5,1.4V14c0,0.6-0.3,0.9-0.9,0.9c-0.2,0-0.4-0.1-0.6-0.2
				c-0.2-0.1-0.3-0.3-0.3-0.7V8.8c-0.1-0.1-0.2-0.2-0.3-0.3c-0.1-0.1-0.1-0.3-0.1-0.4c0-0.2,0.1-0.4,0.2-0.6
				c0.2-0.2,0.4-0.2,0.6-0.2c0.3,0,0.5,0.1,0.6,0.2s0.3,0.4,0.4,0.6c0.3-0.3,0.6-0.5,0.9-0.6C14.5,7.3,14.9,7.2,15.3,7.2z"/>
			<path class="st1" d="M24.7,13.2c0.5,0,1-0.1,1.3-0.2c0.3-0.1,0.5-0.3,0.7-0.3c0.1-0.1,0.2-0.1,0.3-0.2c0.1-0.1,0.2-0.1,0.3-0.2
				c0.1,0,0.2,0,0.4,0c0.1,0,0.2,0.1,0.4,0.2c0.2,0.2,0.2,0.3,0.2,0.6c0,0.2-0.1,0.4-0.2,0.5c-0.2,0.2-0.4,0.5-0.7,0.6
				c-0.3,0.2-0.5,0.3-0.8,0.4c-0.3,0.1-0.6,0.2-0.9,0.2c-0.3,0-0.6,0.1-0.9,0.1c-0.5,0-1-0.1-1.4-0.2c-0.5-0.2-0.9-0.4-1.2-0.7
				c-0.4-0.3-0.6-0.7-0.9-1.2c-0.2-0.5-0.3-1-0.3-1.7c0-0.6,0.1-1.1,0.3-1.5C21.4,9,21.6,8.6,22,8.3c0.3-0.3,0.7-0.6,1.2-0.8
				c0.4-0.2,0.9-0.3,1.4-0.3c0.6,0,1.1,0.1,1.5,0.3C26.6,7.8,27,8,27.3,8.4s0.6,0.7,0.7,1.1c0.2,0.4,0.3,0.8,0.3,1.2
				c0,0.1,0,0.3-0.1,0.4c0,0.1-0.1,0.2-0.2,0.3c-0.1,0.1-0.2,0.2-0.4,0.3c-0.2,0.1-0.4,0.1-0.7,0.1h-4.1c-0.1,0-0.2,0-0.2,0.1
				c0,0.1,0,0.2,0.1,0.3c0.2,0.3,0.5,0.6,0.8,0.7C24,13.1,24.3,13.2,24.7,13.2z M26.2,10.3c0.2,0,0.2,0,0.2-0.1c0-0.1,0-0.2-0.1-0.3
				c-0.4-0.6-1-0.9-1.8-0.9c-0.4,0-0.8,0.1-1.1,0.3c-0.3,0.2-0.6,0.5-0.7,0.8c0,0.1-0.1,0.2,0,0.2s0.1,0.1,0.2,0.1H26.2z"/>
			<path class="st1" d="M30.3,8.8c-0.1-0.1-0.2-0.2-0.3-0.3c-0.1-0.1-0.1-0.3-0.1-0.4c0-0.2,0.1-0.4,0.2-0.6s0.4-0.2,0.6-0.2
				c0.4,0,0.6,0.1,0.8,0.3C31.8,7.8,31.9,8,32,8.3v3.2c0,0.5,0.1,0.9,0.3,1.2c0.2,0.3,0.5,0.4,0.9,0.4c0.5,0,0.8-0.2,1.1-0.5
				c0.2-0.3,0.3-0.7,0.3-1.1V8.8c-0.1-0.1-0.2-0.2-0.3-0.3c-0.1-0.1-0.1-0.3-0.1-0.4c0-0.2,0.1-0.4,0.2-0.6c0.2-0.2,0.4-0.2,0.6-0.2
				c0.4,0,0.6,0.1,0.9,0.3c0.2,0.2,0.4,0.5,0.4,0.8v3.2c0,0.5,0.1,0.9,0.3,1.2s0.6,0.4,1.1,0.4c0.5,0,0.8-0.2,1-0.5
				c0.2-0.3,0.3-0.7,0.3-1.1V8.8c-0.1-0.1-0.2-0.2-0.3-0.3c-0.1-0.1-0.1-0.3-0.1-0.4c0-0.2,0.1-0.4,0.2-0.6c0.2-0.2,0.4-0.2,0.6-0.2
				c0.3,0,0.6,0.1,0.8,0.3c0.2,0.2,0.4,0.5,0.4,0.8v3.2c0,0.5-0.1,0.9-0.2,1.3s-0.3,0.7-0.5,1c-0.2,0.3-0.5,0.5-0.9,0.7
				c-0.4,0.2-0.8,0.2-1.3,0.2c-0.3,0-0.7-0.1-1.1-0.2c-0.4-0.1-0.7-0.4-1-0.7c-0.1-0.1-0.1-0.1-0.2-0.1c-0.1,0-0.1,0-0.2,0.1
				c-0.3,0.4-0.7,0.6-1.1,0.8c-0.4,0.1-0.7,0.2-1.1,0.2c-0.4,0-0.7-0.1-1.1-0.2c-0.3-0.1-0.6-0.3-0.9-0.6c-0.3-0.3-0.5-0.6-0.6-1
				s-0.2-0.9-0.2-1.5V8.8z"/>
		</g>
	</g>
</g>
</svg>
