<?xml version="1.0" encoding="utf-8"?>
<!-- Generator: Adobe Illustrator 22.0.1, SVG Export Plug-In . SVG Version: 6.00 Build 0)  -->
<svg version="1.1" id="레이어_1" xmlns="http://www.w3.org/2000/svg" xmlns:xlink="http://www.w3.org/1999/xlink" x="0px"
	 y="0px" viewBox="0 0 227.4 28.2" style="enable-background:new 0 0 227.4 28.2;" xml:space="preserve">
<style type="text/css">
	.st0{fill:#1A8FFF;}
</style>
<g>
	<g>
		<path class="st0" d="M3.2,27.2c-0.5,0-1-0.2-1.5-0.5C1.2,26.4,1,25.8,1,24.9V3.6c0-0.8,0.2-1.4,0.7-1.7c0.5-0.4,1-0.6,1.5-0.6h7.4
			c3.1,0,5.4,0.8,7,2.4c1.6,1.6,2.4,3.8,2.4,6.5c0,1.5-0.3,2.8-0.8,3.9c-0.5,1.1-1.2,2-2,2.7c-0.9,0.7-1.9,1.3-3,1.6
			c-1.2,0.4-2.4,0.5-3.6,0.5h-4c-0.3,0-0.5,0.1-0.8,0.2c-0.3,0.2-0.4,0.4-0.4,0.8v4.9c0,0.5-0.1,0.9-0.2,1.2
			c-0.2,0.3-0.4,0.5-0.6,0.7c-0.2,0.2-0.5,0.3-0.7,0.3C3.6,27.2,3.4,27.2,3.2,27.2z M5.4,13.4c0,0.8,0.4,1.3,1.2,1.3h3.7
			c1.7,0,3.1-0.4,4-1.2c0.9-0.8,1.4-1.9,1.4-3.2c0-0.6-0.1-1.1-0.2-1.7c-0.2-0.6-0.5-1-0.9-1.5c-0.4-0.4-0.9-0.8-1.6-1
			c-0.7-0.3-1.5-0.4-2.6-0.4h-4c-0.3,0-0.5,0-0.7,0.1C5.5,5.9,5.4,6.1,5.4,6.6V13.4z"/>
		<path class="st0" d="M27.3,27.2c-0.5,0-1-0.2-1.5-0.5c-0.5-0.3-0.7-0.9-0.7-1.8V3.6c0-0.8,0.2-1.4,0.7-1.7c0.5-0.4,1-0.6,1.5-0.6
			h7.4c3.1,0,5.4,0.8,7,2.4c1.6,1.6,2.4,3.8,2.4,6.5c0,1.4-0.2,2.6-0.7,3.6s-1.1,1.9-1.9,2.7c-0.5,0.4-0.5,0.9,0,1.4
			c0.5,0.6,0.9,1.2,1.2,1.9c0.3,0.7,0.6,1.3,0.7,2c0.2,0.6,0.3,1.2,0.4,1.8c0.1,0.5,0.1,1,0.1,1.3c0,0.6-0.2,1.1-0.5,1.6
			c-0.3,0.4-0.8,0.7-1.5,0.7c-0.6,0.1-1.1-0.1-1.4-0.4s-0.6-0.8-0.8-1.5c-0.2-1-0.5-2-0.9-3c-0.4-1-0.9-1.9-1.6-2.6
			c-0.3-0.3-0.6-0.5-0.9-0.6C36.3,19.1,36,19,35.7,19h-5c-0.3,0-0.5,0.1-0.8,0.2c-0.3,0.2-0.4,0.4-0.4,0.8v4.9
			c0,0.5-0.1,0.9-0.2,1.2c-0.2,0.3-0.4,0.5-0.6,0.7c-0.2,0.2-0.5,0.3-0.7,0.3C27.7,27.2,27.5,27.2,27.3,27.2z M29.5,13.4
			c0,0.8,0.4,1.3,1.2,1.3h3.7c1.7,0,3.1-0.4,4-1.2c0.9-0.8,1.4-1.9,1.4-3.2c0-0.6-0.1-1.1-0.2-1.7c-0.2-0.6-0.4-1-0.9-1.5
			s-0.9-0.8-1.6-1s-1.5-0.4-2.6-0.4h-4c-0.3,0-0.5,0-0.7,0.1c-0.2,0.1-0.3,0.3-0.3,0.8V13.4z"/>
		<path class="st0" d="M61.8,27.2c-1.7,0-3.3-0.3-4.9-0.9c-1.6-0.6-2.9-1.4-4.1-2.5c-1.2-1.1-2.2-2.5-2.9-4.1
			c-0.7-1.6-1.1-3.5-1.1-5.6c0-1.9,0.3-3.6,0.9-5.2c0.6-1.6,1.5-3,2.6-4.2c1.1-1.2,2.5-2.1,4.1-2.7c1.6-0.7,3.3-1,5.3-1
			c1.7,0,3.4,0.3,5,0.9c1.6,0.6,2.9,1.5,4.1,2.7C72,5.7,73,7.1,73.7,8.7c0.7,1.6,1.1,3.4,1.1,5.4c0,2-0.3,3.7-1,5.3
			c-0.7,1.6-1.6,3-2.8,4.1c-1.2,1.2-2.5,2-4.1,2.7S63.6,27.2,61.8,27.2z M61.8,5.2c-1.2,0-2.3,0.2-3.3,0.6c-1,0.4-1.9,1-2.7,1.8
			C55,8.3,54.4,9.3,54,10.4c-0.4,1.1-0.7,2.4-0.7,3.8c0,1.2,0.2,2.4,0.5,3.5c0.4,1.1,0.9,2,1.6,2.8c0.7,0.8,1.6,1.5,2.7,1.9
			c1,0.5,2.3,0.7,3.7,0.7c1,0,2-0.2,3.1-0.5c1-0.3,1.9-0.9,2.7-1.6c0.8-0.7,1.5-1.7,2-2.8s0.7-2.5,0.7-4c0-1.3-0.2-2.4-0.6-3.5
			c-0.4-1.1-1-2-1.8-2.9c-0.8-0.8-1.7-1.4-2.7-1.9C64.2,5.4,63,5.2,61.8,5.2z"/>
		<path class="st0" d="M100.8,27.2c-0.7,0-1.2-0.2-1.6-0.6c-0.4-0.4-0.6-0.9-0.6-1.5V11.8c0-0.7-0.2-0.7-0.5-0.1l-4.5,8.5
			c-0.2,0.3-0.4,0.7-0.8,1c-0.3,0.3-0.7,0.5-1.2,0.5c-0.5,0-0.9-0.1-1.2-0.4c-0.3-0.3-0.5-0.6-0.7-1l-4.6-8.7
			c-0.1-0.2-0.2-0.4-0.3-0.3c-0.1,0-0.1,0.1-0.1,0.4v13.6c0,0.7-0.2,1.2-0.7,1.5c-0.4,0.3-0.9,0.5-1.5,0.5c-0.7,0-1.2-0.2-1.6-0.6
			c-0.4-0.4-0.6-0.9-0.6-1.4v-22c0-0.7,0.2-1.2,0.7-1.6C81.5,1.2,82,1,82.6,1c0.4,0,0.7,0,1.1,0.1s0.8,0.5,1.1,1.1l6.3,12.4
			c0.1,0.2,0.1,0.3,0.2,0.4c0.1,0.1,0.2,0.2,0.2,0.2c0.1,0,0.1-0.1,0.2-0.2c0.1-0.1,0.2-0.3,0.2-0.4l6.3-12.3c0.2-0.4,0.5-0.7,0.8-1
			c0.3-0.2,0.7-0.4,1.2-0.4c0.7,0,1.3,0.3,1.8,0.8c0.5,0.5,0.7,1.1,0.7,1.7V25c0,0.7-0.2,1.2-0.6,1.6
			C101.9,27,101.4,27.2,100.8,27.2z"/>
		<path class="st0" d="M121.4,27.2c-1.7,0-3.3-0.3-4.9-0.9c-1.6-0.6-2.9-1.4-4.1-2.5c-1.2-1.1-2.2-2.5-2.9-4.1
			c-0.7-1.6-1.1-3.5-1.1-5.6c0-1.9,0.3-3.6,0.9-5.2c0.6-1.6,1.5-3,2.6-4.2c1.1-1.2,2.5-2.1,4.1-2.7s3.3-1,5.3-1
			c1.7,0,3.4,0.3,4.9,0.9c1.6,0.6,2.9,1.5,4.1,2.7c1.2,1.2,2.1,2.5,2.8,4.1c0.7,1.6,1.1,3.4,1.1,5.4c0,2-0.3,3.7-1,5.3
			c-0.7,1.6-1.6,3-2.8,4.1c-1.2,1.2-2.5,2-4.1,2.7C124.9,26.9,123.2,27.2,121.4,27.2z M121.4,5.2c-1.2,0-2.3,0.2-3.3,0.6
			c-1,0.4-1.9,1-2.7,1.8c-0.8,0.8-1.4,1.7-1.8,2.8c-0.5,1.1-0.7,2.4-0.7,3.8c0,1.2,0.2,2.4,0.5,3.5c0.4,1.1,0.9,2,1.6,2.8
			c0.7,0.8,1.6,1.5,2.7,1.9c1,0.5,2.3,0.7,3.7,0.7c1,0,2-0.2,3.1-0.5c1-0.3,1.9-0.9,2.7-1.6c0.8-0.7,1.5-1.7,2-2.8s0.7-2.5,0.7-4
			c0-1.3-0.2-2.4-0.6-3.5c-0.4-1.1-1-2-1.8-2.9c-0.8-0.8-1.7-1.4-2.7-1.9C123.8,5.4,122.6,5.2,121.4,5.2z"/>
		<path class="st0" d="M147.8,27.2c-0.6,0-1.1-0.2-1.6-0.5c-0.5-0.3-0.7-0.9-0.7-1.8V6.7c0-0.6-0.1-0.9-0.3-1.1
			c-0.2-0.1-0.4-0.2-0.7-0.2h-4.4c-0.5,0-1-0.1-1.3-0.2c-0.3-0.1-0.6-0.3-0.7-0.5c-0.2-0.2-0.3-0.4-0.3-0.7
			c-0.1-0.2-0.1-0.5-0.1-0.8c0-0.2,0-0.4,0.1-0.7c0.1-0.2,0.2-0.5,0.4-0.7c0.2-0.2,0.4-0.4,0.7-0.5c0.3-0.1,0.7-0.2,1.2-0.2h15.3
			c0.5,0,0.9,0.1,1.2,0.2s0.6,0.3,0.7,0.5c0.2,0.2,0.3,0.4,0.4,0.7s0.1,0.5,0.1,0.6c0,0.5-0.2,1-0.5,1.4c-0.4,0.5-1,0.7-1.9,0.7
			h-4.5c-0.3,0-0.5,0.1-0.7,0.2c-0.2,0.2-0.3,0.5-0.3,1.1v18.3c0,0.7-0.2,1.2-0.6,1.6C148.9,27,148.4,27.2,147.8,27.2z"/>
		<path class="st0" d="M163.8,22.7c0.2,0,0.3,0,0.3-0.1c0.1,0,0.1-0.2,0.1-0.4V5.8c0-0.2,0-0.4-0.1-0.4c-0.1,0-0.2-0.1-0.3-0.1h-0.4
			c-0.5,0-1-0.1-1.3-0.2c-0.3-0.1-0.6-0.3-0.7-0.5c-0.2-0.2-0.3-0.4-0.3-0.7c0-0.2-0.1-0.5-0.1-0.8c0-0.4,0.2-0.9,0.5-1.3
			c0.3-0.5,1-0.7,1.9-0.7h5.9c1,0,1.6,0.2,2,0.7c0.3,0.5,0.5,0.9,0.5,1.3c0,0.5-0.2,1-0.6,1.4c-0.4,0.4-1,0.7-1.9,0.7h-0.3
			c-0.2,0-0.3,0-0.3,0.1c-0.1,0-0.1,0.2-0.1,0.4v16.4c0,0.2,0,0.4,0.1,0.4c0.1,0,0.2,0.1,0.3,0.1h0.3c1,0,1.6,0.2,2,0.7
			c0.3,0.5,0.5,0.9,0.5,1.3c0,0.5-0.2,0.9-0.6,1.4c-0.4,0.5-1,0.7-1.9,0.7h-5.9c-1.1,0-1.7-0.2-2-0.7c-0.3-0.4-0.4-0.9-0.4-1.4
			c0-0.5,0.2-0.9,0.5-1.3c0.3-0.5,1-0.7,1.9-0.7H163.8z"/>
		<path class="st0" d="M188.9,27.2c-1.7,0-3.3-0.3-4.9-0.9c-1.6-0.6-2.9-1.4-4.1-2.5c-1.2-1.1-2.2-2.5-2.9-4.1
			c-0.7-1.6-1.1-3.5-1.1-5.6c0-1.9,0.3-3.6,0.9-5.2c0.6-1.6,1.5-3,2.6-4.2s2.5-2.1,4.1-2.7c1.6-0.7,3.3-1,5.3-1c1.7,0,3.4,0.3,5,0.9
			c1.6,0.6,2.9,1.5,4.1,2.7c1.2,1.2,2.1,2.5,2.8,4.1c0.7,1.6,1.1,3.4,1.1,5.4c0,2-0.3,3.7-1,5.3s-1.6,3-2.8,4.1
			c-1.2,1.2-2.5,2-4.1,2.7S190.7,27.2,188.9,27.2z M188.9,5.2c-1.2,0-2.3,0.2-3.3,0.6c-1,0.4-1.9,1-2.7,1.8
			c-0.8,0.8-1.4,1.7-1.8,2.8c-0.5,1.1-0.7,2.4-0.7,3.8c0,1.2,0.2,2.4,0.5,3.5c0.4,1.1,0.9,2,1.6,2.8c0.7,0.8,1.6,1.5,2.7,1.9
			c1,0.5,2.3,0.7,3.7,0.7c1,0,2-0.2,3.1-0.5c1-0.3,1.9-0.9,2.7-1.6c0.8-0.7,1.5-1.7,2-2.8c0.5-1.1,0.7-2.5,0.7-4
			c0-1.3-0.2-2.4-0.6-3.5c-0.4-1.1-1-2-1.8-2.9c-0.8-0.8-1.7-1.4-2.7-1.9C191.3,5.4,190.1,5.2,188.9,5.2z"/>
		<path class="st0" d="M226.4,24.7c0,0.6-0.2,1.1-0.5,1.6c-0.4,0.5-0.9,0.7-1.6,0.7c-0.5,0-0.9-0.1-1.1-0.3
			c-0.3-0.2-0.5-0.4-0.8-0.8l-9.8-15c-0.2-0.3-0.4-0.5-0.5-0.5c-0.1,0-0.2,0.2-0.2,0.6V25c0,0.5-0.1,0.9-0.2,1.2
			c-0.2,0.3-0.4,0.5-0.6,0.7c-0.2,0.2-0.5,0.2-0.8,0.3c-0.3,0-0.5,0.1-0.7,0.1c-0.5,0-1-0.1-1.4-0.4c-0.4-0.3-0.7-0.9-0.7-1.8V3.3
			c0-0.8,0.2-1.4,0.7-1.7c0.5-0.4,0.9-0.6,1.5-0.6c0.4,0,0.8,0.1,1.1,0.3c0.3,0.2,0.6,0.4,0.7,0.7l9.9,15.3c0.1,0.1,0.1,0.1,0.2,0.2
			c0.1,0.1,0.2,0.1,0.3,0.1c0.1,0,0.2-0.2,0.2-0.5v-12c-0.3-0.2-0.6-0.5-0.8-0.8c-0.2-0.3-0.3-0.7-0.3-1.1c0-0.6,0.2-1.1,0.6-1.5
			c0.4-0.4,0.9-0.6,1.6-0.6c0.9,0,1.6,0.3,2.2,0.9c0.6,0.6,0.9,1.3,1.1,2V24.7z"/>
	</g>
</g>
</svg>
