<?xml version="1.0" encoding="utf-8"?>
<!-- Generator: Adobe Illustrator 22.0.1, SVG Export Plug-In . SVG Version: 6.00 Build 0)  -->
<svg version="1.1" id="레이어_1" xmlns="http://www.w3.org/2000/svg" xmlns:xlink="http://www.w3.org/1999/xlink" x="0px"
	 y="0px" viewBox="0 0 45.6 21.1" style="enable-background:new 0 0 45.6 21.1;" xml:space="preserve">
<style type="text/css">
	.st0{fill:#666666;}
</style>
<g>
	<path class="st0" d="M14.9,19.7c-0.5,0.2-1.4,0.4-2.5,0.4c-3,0-5.1-1.6-6.1-3.9C3.1,15.6,1,12.8,1,8.6C1,3.8,3.7,1,7.6,1
		c3.9,0,6.6,2.8,6.6,7.6c0,4-1.9,6.8-4.9,7.5c0.7,1.1,2,1.6,3.4,1.6c0.6,0,1.2-0.1,1.6-0.2L14.9,19.7z M7.6,13.9
		c2.2,0,3.6-2,3.6-5.3c0-3.2-1.4-5.1-3.6-5.1C5.4,3.5,4,5.4,4,8.6C4,11.9,5.4,13.9,7.6,13.9z"/>
	<path class="st0" d="M29.8,16.4c-1.2-0.3-2.4-0.8-3.7-1.6c-1.2,1-2.7,1.6-4.5,1.6c-3.1,0-4.8-1.9-4.8-4.2c0-2.1,1.3-3.3,2.8-4.2
		c-0.6-1.1-0.9-2.2-0.9-3.2c0-2.1,1.5-3.8,3.9-3.8c2.1,0,3.4,1.3,3.4,3.2c0,2-1.6,3.2-3.2,4.3c0.9,1.1,2,2.2,3.2,3.1
		c0.8-1,1.4-2.3,1.8-3.8h2.7c-0.5,1.8-1.4,3.5-2.5,5.1c1,0.5,1.9,0.9,2.6,1.1L29.8,16.4z M21.9,14.1c0.7,0,1.5-0.3,2.2-0.7
		c-1.3-1-2.4-2.2-3.3-3.5c-0.7,0.6-1.2,1.3-1.2,2.1C19.5,13.2,20.5,14.1,21.9,14.1z M21.5,6.7c1.2-0.7,2.1-1.4,2.1-2.5
		c0-0.7-0.3-1.3-1.1-1.3C21.6,3,21,3.7,21,4.8C21,5.4,21.2,6,21.5,6.7z"/>
	<path class="st0" d="M40.5,12.3h-4.8l-1,3.8h-3l4.7-14.8h3.5l4.8,14.8h-3.1L40.5,12.3z M39.8,10l-0.4-1.6c-0.5-1.5-0.9-3.2-1.3-4.8
		H38c-0.4,1.6-0.8,3.3-1.3,4.8L36.3,10H39.8z"/>
</g>
</svg>
