<?xml version="1.0" encoding="utf-8"?>
<!-- Generator: Adobe Illustrator 22.0.1, SVG Export Plug-In . SVG Version: 6.00 Build 0)  -->
<svg version="1.1" id="레이어_1" xmlns="http://www.w3.org/2000/svg" xmlns:xlink="http://www.w3.org/1999/xlink" x="0px"
	 y="0px" viewBox="0 0 27.2 28.1" style="enable-background:new 0 0 27.2 28.1;" xml:space="preserve">
<style type="text/css">
	.st0{fill:#FFFFFF;}
</style>
<g>
	<g transform="matrix(1,0,0,1,-7,-2)">
		<path class="st0" d="M18.6,3c0.5,0,1,0,1.5,0.1c0.9,0.1,1.9,0.4,2.7,0.8c1.1,0.5,2,1.1,2.9,1.9c0.9,0.8,1.6,1.8,2.1,2.8
			c0.5,0.9,0.8,1.9,1,2.9c0.2,1.1,0.2,2.3,0.1,3.4c-0.1,1.1-0.5,2.1-0.9,3.1c-0.5,1.1-1.3,2.2-2.2,3c-0.9,0.9-2.1,1.7-3.3,2.2
			c-1.3,0.5-2.7,0.8-4,0.8c-1.4,0-2.8-0.3-4.1-0.8c-1.2-0.5-2.3-1.2-3.3-2.1c-0.9-0.9-1.7-1.9-2.2-3c-0.5-1-0.8-2-1-3.1
			c-0.2-1.1-0.1-2.2,0-3.3c0.2-1,0.5-1.9,0.9-2.8c0.5-1.1,1.2-2.1,2.1-2.9C12,5.2,13,4.5,14.1,4c0.9-0.4,1.8-0.7,2.7-0.8
			c0.5-0.1,1-0.1,1.5-0.1C18.4,3,18.5,3,18.6,3z M18.5,5.7c-0.4,0-0.8,0-1.1,0.1c-0.7,0.1-1.4,0.3-2,0.6c-0.8,0.4-1.5,0.8-2.1,1.4
			c-0.6,0.6-1.2,1.3-1.6,2c-0.3,0.6-0.6,1.3-0.7,2.1c-0.2,0.9-0.2,1.7-0.1,2.6c0.1,0.8,0.3,1.5,0.7,2.3c0.4,0.9,1,1.6,1.6,2.3
			c0.7,0.7,1.5,1.2,2.4,1.6c0.9,0.4,2,0.6,3,0.6c1,0,2.1-0.2,3-0.6c0.9-0.4,1.7-0.9,2.4-1.6c0.7-0.7,1.2-1.4,1.7-2.3
			c0.3-0.7,0.6-1.5,0.7-2.2c0.1-0.9,0.1-1.8-0.1-2.6c-0.1-0.7-0.4-1.5-0.7-2.1c-0.4-0.8-0.9-1.5-1.5-2.1c-0.6-0.6-1.3-1.1-2.1-1.4
			c-0.6-0.3-1.3-0.5-2-0.6c-0.4-0.1-0.8-0.1-1.1-0.1C18.6,5.7,18.6,5.7,18.5,5.7z"/>
	</g>
	<g transform="matrix(0.707107,-0.707107,0.597816,0.597816,-15.573,81.5935)">
		<path class="st0" d="M69-26c0,0.1,0.1,0.1,0.1,0.2c0.1,0.2,0.1,0.3,0.2,0.5c0,0.1,0,0.2,0,0.3c0,0,0,0.1,0,0.1l0.1,12.1
			c0,0.1,0,0.2,0,0.3c0,0.2-0.1,0.3-0.1,0.5c-0.2,0.4-0.5,0.7-0.9,0.8c-0.1,0-0.2,0-0.4,0c-0.1,0-0.3,0-0.4-0.1
			c-0.2-0.1-0.3-0.2-0.4-0.3c-0.1-0.1-0.2-0.3-0.3-0.5c-0.1-0.2-0.1-0.3-0.1-0.5c0-0.1,0-0.1,0-0.2L66.6-25c0-0.1,0-0.2,0-0.3
			c0-0.2,0.1-0.3,0.1-0.5c0.1-0.2,0.2-0.3,0.3-0.4c0.1-0.1,0.2-0.2,0.3-0.2c0.3-0.2,0.7-0.2,1.1-0.1c0.1,0.1,0.3,0.2,0.4,0.3
			C68.9-26.2,68.9-26.1,69-26C69-26.1,69-26,69-26z"/>
	</g>
</g>
</svg>
