<?xml version="1.0" encoding="utf-8"?>
<!-- Generator: Adobe Illustrator 22.0.1, SVG Export Plug-In . SVG Version: 6.00 Build 0)  -->
<svg version="1.1" id="레이어_1" xmlns="http://www.w3.org/2000/svg" xmlns:xlink="http://www.w3.org/1999/xlink" x="0px"
	 y="0px" viewBox="0 0 170.7 56.8" style="enable-background:new 0 0 170.7 56.8;" xml:space="preserve">
<style type="text/css">
	.st0{fill:#FFFFFF;}
</style>
<g>
	<path class="st0" d="M120.3,41.9v0.8v6.5v5.9v0.6h35.9l6.5-6.5v-6.5v-6.5h-42.5V41.9z M156.3,49.3h-29.4v-6.5h29.4V49.3z"/>
	<polygon class="st0" points="163.1,2.4 156.6,2.4 156.6,25.2 126.9,25.2 126.9,20.3 146.7,20.3 153.3,13.8 153.3,8.9 153.3,2.4 
		146.7,2.4 107.7,2.4 107.7,2.8 107.7,8.9 107.7,17.9 91,1.3 86.4,5.9 63.7,28.5 63.7,2.4 57.7,2.4 57.2,2.4 51.7,2.4 51.2,2.4 
		45.1,2.4 45.1,18.1 32.6,5.6 28,1 1,28 10.2,28 28,10.2 51.6,33.9 51.6,25.2 51.7,25.2 51.7,8.9 57.2,8.9 57.2,33.9 58.4,33.9 
		58.4,33.9 67.6,33.9 91,10.5 114.2,33.7 114.2,25.6 114.2,25.6 114.2,8.9 146.7,8.9 146.7,13.8 120.3,13.8 120.3,19 120.3,20.3 
		120.3,25.2 120.3,25.6 120.3,31.8 156.6,31.8 163.1,25.2 163.1,8.9 169.7,8.9 	"/>
	<polygon class="st0" points="17.6,43.8 16.2,43.8 16.2,39.1 14.6,39.1 14.6,51.1 16.2,51.1 16.2,45.2 17.6,45.2 17.6,51.8 
		19.2,51.8 19.2,38.7 17.6,38.7 	"/>
	<path class="st0" d="M12.7,47c-0.3-0.4-0.6-0.9-0.9-1.4c-0.3-0.5-0.4-1-0.6-1.6c-0.1-0.6-0.2-1.2-0.2-1.9v-2.4H9.4v2.4
		c0,1.4-0.3,2.6-0.8,3.6c-0.5,1-1.3,1.9-2.2,2.6l1.1,1.1c0.3-0.2,0.6-0.5,0.9-0.8c0.3-0.3,0.5-0.6,0.8-0.9c0.2-0.3,0.4-0.7,0.6-1
		c0.2-0.3,0.3-0.7,0.4-1c0.1,0.3,0.2,0.6,0.4,0.9c0.2,0.3,0.4,0.6,0.6,0.9c0.2,0.3,0.5,0.6,0.7,0.9c0.3,0.3,0.5,0.5,0.8,0.7l1.1-1.2
		C13.5,47.7,13.1,47.4,12.7,47z"/>
	<rect x="22" y="41.4" class="st0" width="3.4" height="1.2"/>
	<polygon class="st0" points="31.1,45.4 29.5,45.4 29.5,41.2 28.2,41.2 28.2,51.3 29.5,51.3 29.5,46.3 31,46.3 31,46.8 41.3,46.8 
		41.3,45.8 31.1,45.8 	"/>
	<path class="st0" d="M25.5,47.2c-0.3-0.3-0.5-0.7-0.6-1.1c-0.2-0.4-0.2-0.8-0.2-1.3v-0.3h2.3v-1.1h-6.1v1.1h2.3V45
		c0,0.4-0.1,0.9-0.3,1.3c-0.2,0.4-0.4,0.8-0.6,1.1c-0.3,0.3-0.6,0.7-0.9,0.9c-0.3,0.3-0.7,0.5-1,0.7l0.9,1c0.2-0.1,0.5-0.3,0.8-0.5
		c0.3-0.2,0.5-0.4,0.8-0.7c0.2-0.3,0.5-0.5,0.7-0.8c0.2-0.3,0.3-0.5,0.4-0.8c0.1,0.2,0.3,0.5,0.4,0.8c0.2,0.3,0.4,0.5,0.6,0.7
		c0.2,0.2,0.5,0.4,0.8,0.6c0.3,0.2,0.5,0.4,0.8,0.5l0.8-1c-0.3-0.2-0.7-0.4-1-0.6S25.8,47.6,25.5,47.2z"/>
	<polygon class="st0" points="40,43.8 40,41.2 32.3,41.2 32.3,42.3 38.4,42.3 38.4,42.7 32.3,42.7 32.3,45.1 40.2,45.1 40.2,44.2 
		33.8,44.2 33.8,43.8 	"/>
	<polygon class="st0" points="33.8,49.9 39.9,49.9 39.9,47.4 32.3,47.4 32.3,48.4 38.4,48.4 38.4,48.9 32.3,48.9 32.3,51.3 
		40.2,51.3 40.2,50.4 33.8,50.4 	"/>
	<rect x="47.2" y="40.1" class="st0" width="8.1" height="1.5"/>
	<polygon class="st0" points="58.2,38.9 56.6,38.9 56.6,51.9 58.2,51.9 58.2,45.6 60.1,45.6 60.1,44.1 58.2,44.1 	"/>
	<polygon class="st0" points="54,42.4 52.2,42.4 52.1,47.5 50.3,47.5 50.2,42.4 48.4,42.4 48.6,47.5 46.9,47.5 46.9,48.9 55.6,48.9 
		55.6,47.5 53.9,47.5 	"/>
	<path class="st0" d="M81.8,45.8c-0.3-0.5-0.5-1-0.7-1.5c-0.2-0.6-0.3-1.2-0.3-1.8v-2.8h-1.6l0,2.9c0,0.7-0.1,1.3-0.3,1.9
		c-0.2,0.6-0.4,1.1-0.7,1.6c-0.3,0.5-0.7,0.9-1.1,1.3c-0.4,0.4-1.1,1-1.6,1.3l1,1.2c0.7-0.4,1.7-1.3,2.2-2c0.6-0.7,1-1.3,1.2-2
		c0.3,0.7,0.7,1.3,1.2,1.9c0.6,0.6,1.3,1.4,2,1.8l1-1.2c-0.4-0.3-1.1-0.8-1.4-1.2C82.4,46.7,82.1,46.3,81.8,45.8z"/>
	<polygon class="st0" points="87.1,39 85.5,39 85.5,51.8 87.1,51.8 87.1,45.6 89.1,45.6 89.1,44.2 87.1,44.2 	"/>
	<path class="st0" d="M91.4,52h9.2v-4.6h-9.2V52z M92.9,48.6h6.3v2.2h-6.3V48.6z"/>
	<polygon class="st0" points="90,42.1 90,44.9 90,45.9 90,46 97.9,46 97.9,44.9 91.5,44.9 91.5,43.4 96.6,43.4 96.6,39.7 90,39.7 
		90,40.9 95.1,40.9 95.1,42.1 	"/>
	<polygon class="st0" points="102.6,42.2 100.6,42.2 100.6,39 99.2,39 99.2,46.6 100.6,46.6 100.6,43.5 102.6,43.5 	"/>
	<rect x="102.3" y="45.7" class="st0" width="10.8" height="1"/>
	<polygon class="st0" points="111.6,42.6 111.6,41.6 103.8,41.6 103.8,44.9 111.6,44.9 111.6,43.8 105.1,43.8 105.1,42.6 	"/>
	<polygon class="st0" points="103.9,48.5 110.5,48.5 110.5,49.2 103.9,49.2 103.9,51.7 111.8,51.7 111.8,50.6 105.1,50.6 
		105.1,50.2 111.8,50.2 111.8,47.4 103.9,47.4 	"/>
	<polygon class="st0" points="62.7,48.2 61.6,48.2 61.6,51.2 69.4,51.2 69.4,50.1 62.7,50.1 	"/>
	<polygon class="st0" points="61.6,41.4 61.6,44.9 69.4,44.9 69.4,43.8 62.7,43.8 62.7,41.4 	"/>
	<rect x="61" y="46.2" class="st0" width="10.2" height="1.1"/>
</g>
</svg>
