<?xml version="1.0" encoding="utf-8"?>
<!-- Generator: Adobe Illustrator 22.0.1, SVG Export Plug-In . SVG Version: 6.00 Build 0)  -->
<svg version="1.1" id="레이어_1" xmlns="http://www.w3.org/2000/svg" xmlns:xlink="http://www.w3.org/1999/xlink" x="0px"
	 y="0px" viewBox="0 0 32.7 32.7" style="enable-background:new 0 0 32.7 32.7;" xml:space="preserve">
<style type="text/css">
	.st0{fill:#1A8FFF;}
	.st1{fill:#FFFFFF;}
</style>
<g>
	<circle class="st0" cx="16.3" cy="16.3" r="15.3"/>
	<g>
		<g transform="matrix(1,0,0,1,-7,-2)">
			<path class="st1" d="M22.4,12.5c0.2,0,0.5,0,0.7,0.1c0.4,0.1,0.8,0.2,1.2,0.4c0.5,0.2,0.9,0.5,1.3,0.9c0.4,0.4,0.7,0.8,1,1.3
				c0.2,0.4,0.4,0.8,0.4,1.3c0.1,0.5,0.1,1,0,1.5c-0.1,0.5-0.2,1-0.4,1.4c-0.2,0.5-0.6,1-1,1.4c-0.4,0.4-0.9,0.7-1.5,1
				c-0.6,0.2-1.2,0.4-1.8,0.4c-0.6,0-1.2-0.1-1.8-0.3c-0.5-0.2-1-0.5-1.5-1c-0.4-0.4-0.7-0.8-1-1.3c-0.2-0.4-0.4-0.9-0.4-1.4
				c-0.1-0.5-0.1-1,0-1.5c0.1-0.4,0.2-0.9,0.4-1.3c0.2-0.5,0.6-0.9,0.9-1.3c0.4-0.4,0.8-0.7,1.3-0.9c0.4-0.2,0.8-0.3,1.2-0.4
				c0.2,0,0.5-0.1,0.7-0.1C22.4,12.5,22.4,12.5,22.4,12.5z M22.4,13.7c-0.2,0-0.3,0-0.5,0c-0.3,0-0.6,0.1-0.9,0.3
				c-0.4,0.2-0.7,0.4-1,0.6c-0.3,0.3-0.5,0.6-0.7,0.9c-0.2,0.3-0.3,0.6-0.3,0.9c-0.1,0.4-0.1,0.8,0,1.2c0,0.3,0.1,0.7,0.3,1
				c0.2,0.4,0.4,0.7,0.7,1c0.3,0.3,0.7,0.6,1.1,0.7c0.4,0.2,0.9,0.3,1.3,0.3c0.5,0,0.9-0.1,1.3-0.3c0.4-0.2,0.8-0.4,1.1-0.7
				c0.3-0.3,0.6-0.6,0.7-1c0.2-0.3,0.3-0.7,0.3-1c0.1-0.4,0-0.8,0-1.2c-0.1-0.3-0.2-0.7-0.3-0.9c-0.2-0.3-0.4-0.7-0.7-0.9
				c-0.3-0.3-0.6-0.5-0.9-0.6c-0.3-0.1-0.6-0.2-0.9-0.3C22.8,13.7,22.6,13.7,22.4,13.7C22.4,13.7,22.4,13.7,22.4,13.7z"/>
		</g>
		<g transform="matrix(0.707107,-0.707107,0.597816,0.597816,-15.573,81.5935)">
			<path class="st1" d="M69-25.2C69-25.1,69-25.1,69-25.2c0.1,0.2,0.1,0.2,0.1,0.3c0,0,0,0.1,0,0.1c0,0,0,0,0,0l0,5.4
				c0,0,0,0.1,0,0.1c0,0.1,0,0.2-0.1,0.2c-0.1,0.2-0.2,0.3-0.4,0.3c-0.1,0-0.1,0-0.2,0c-0.1,0-0.1,0-0.2,0c-0.1,0-0.1-0.1-0.2-0.1
				C68.1-18.8,68-18.9,68-19c0-0.1,0-0.1-0.1-0.2c0,0,0,0,0-0.1l0-5.4c0,0,0-0.1,0-0.1c0-0.1,0-0.2,0.1-0.2c0-0.1,0.1-0.1,0.1-0.2
				c0,0,0.1-0.1,0.1-0.1c0.1-0.1,0.3-0.1,0.5,0C68.8-25.3,68.8-25.3,69-25.2C68.9-25.2,68.9-25.2,69-25.2C69-25.2,69-25.2,69-25.2z"
				/>
		</g>
	</g>
</g>
</svg>
