<?xml version="1.0" encoding="utf-8"?>
<!-- Generator: Adobe Illustrator 22.0.1, SVG Export Plug-In . SVG Version: 6.00 Build 0)  -->
<svg version="1.1" id="레이어_1" xmlns="http://www.w3.org/2000/svg" xmlns:xlink="http://www.w3.org/1999/xlink" x="0px"
	 y="0px" viewBox="0 0 74.7 74.7" style="enable-background:new 0 0 74.7 74.7;" xml:space="preserve">
<style type="text/css">
	.st0{fill:#FED322;}
	.st1{fill:#381E1F;}
	.st2{fill:#FAE100;}
	.st3{clip-path:url(#SVGID_2_);fill:#FAE100;}
	.st4{clip-path:url(#SVGID_5_);fill:#FAE100;}
	.st5{clip-path:url(#SVGID_7_);fill:#FAE100;}
	.st6{clip-path:url(#SVGID_9_);fill:#FAE100;}
</style>
<g>
	<rect class="st0" width="74.7" height="74.7"/>
	<g>
		<path class="st1" d="M37.3,19.5c-10.7,0-19.4,6.9-19.4,15.4c0,5.5,3.7,10.4,9.2,13.1c-0.4,1.5-1.5,5.5-1.7,6.3
			c-0.3,1.1,0.4,1,0.8,0.8c0.3-0.2,5.3-3.6,7.5-5.1c1.2,0.2,2.4,0.3,3.6,0.3c10.7,0,19.4-6.9,19.4-15.4
			C56.8,26.4,48.1,19.5,37.3,19.5"/>
		<g>
			<g>
				<g>
					<g>
						<path id="SVGID_22_" class="st2" d="M23.7,30c-1.2,0-1.2,2.1,0,2.1h2c0,0,0,5.6,0,6.9c0,0.9,2.1,1,2.1,0v-6.8
							c0,0,0.7-0.1,2-0.1s1.3-2.1,0-2.1C29.8,30,23.7,30,23.7,30z"/>
					</g>
					<g>
						<defs>
							<path id="SVGID_1_" d="M23.7,30c-1.2,0-1.2,2.1,0,2.1h2c0,0,0,5.6,0,6.9c0,0.9,2.1,1,2.1,0v-6.8c0,0,0.7-0.1,2-0.1
								s1.3-2.1,0-2.1C29.8,30,23.7,30,23.7,30z"/>
						</defs>
						<clipPath id="SVGID_2_">
							<use xlink:href="#SVGID_1_"  style="overflow:visible;"/>
						</clipPath>
						<rect x="22.5" y="30" class="st3" width="8.6" height="10"/>
					</g>
				</g>
			</g>
			<g>
				<g>
					<g>
						<path id="SVGID_16_" class="st2" d="M33.7,32.5l1.1,3.5h-2.3L33.7,32.5z M32.4,30.9c-0.5,1.1-2.3,6.3-2.9,7.7
							c-0.4,1,1.4,1.8,1.9,0.8l0.4-1.4h3.7c0,0-0.1,0.1,0.4,1.4c0.4,1.1,2.3,0.3,1.9-0.7c-0.6-1.5-2.5-6.9-2.9-7.7
							c-0.2-0.4-0.8-0.6-1.3-0.6C33.1,30.3,32.6,30.5,32.4,30.9"/>
					</g>
					<g>
						<defs>
							<path id="SVGID_3_" d="M33.7,32.5l1.1,3.5h-2.3L33.7,32.5z M32.4,30.9c-0.5,1.1-2.3,6.3-2.9,7.7c-0.4,1,1.4,1.8,1.9,0.8
								l0.4-1.4h3.7c0,0-0.1,0.1,0.4,1.4c0.4,1.1,2.3,0.3,1.9-0.7c-0.6-1.5-2.5-6.9-2.9-7.7c-0.2-0.4-0.8-0.6-1.3-0.6
								C33.1,30.3,32.6,30.5,32.4,30.9"/>
						</defs>
						<clipPath id="SVGID_5_">
							<use xlink:href="#SVGID_3_"  style="overflow:visible;"/>
						</clipPath>
						<rect x="29.1" y="30.3" class="st4" width="9.1" height="10.1"/>
					</g>
				</g>
			</g>
			<g>
				<g>
					<g>
						<path id="SVGID_10_" class="st2" d="M38.5,31.2c0,1.8,0,7.4,0,7.4s-0.2,1.1,0.8,1.1s3.1,0,4.1,0s0.9-2,0-2c-1,0-2.7,0-2.7,0
							s0-5.2,0-6.5c0-0.6-0.5-0.9-1.1-0.9C39.1,30.3,38.5,30.6,38.5,31.2"/>
					</g>
					<g>
						<defs>
							<path id="SVGID_6_" d="M38.5,31.2c0,1.8,0,7.4,0,7.4s-0.2,1.1,0.8,1.1s3.1,0,4.1,0s0.9-2,0-2c-1,0-2.7,0-2.7,0s0-5.2,0-6.5
								c0-0.6-0.5-0.9-1.1-0.9C39.1,30.3,38.5,30.6,38.5,31.2"/>
						</defs>
						<clipPath id="SVGID_7_">
							<use xlink:href="#SVGID_6_"  style="overflow:visible;"/>
						</clipPath>
						<rect x="38.4" y="30.3" class="st5" width="6" height="9.5"/>
					</g>
				</g>
			</g>
			<g>
				<g>
					<g>
						<path id="SVGID_4_" class="st2" d="M44.7,30.9c0,0.8,0,7.7,0,8.3c0,0.8,2.1,0.8,2.1,0c0-0.9,0-2.7,0-2.7l0.6-0.5l2.7,3.6
							c0.5,0.7,2.2-0.6,1.7-1.3L49,34.6c0,0,1.9-2.1,2.7-2.8c0.4-0.4-0.9-1.8-1.4-1.4c-0.4,0.4-3.4,3.4-3.4,3.4s0-1.9,0-2.9
							c0-0.4-0.5-0.6-1-0.6C45.2,30.3,44.7,30.5,44.7,30.9"/>
					</g>
					<g>
						<defs>
							<path id="SVGID_8_" d="M44.7,30.9c0,0.8,0,7.7,0,8.3c0,0.8,2.1,0.8,2.1,0c0-0.9,0-2.7,0-2.7l0.6-0.5l2.7,3.6
								c0.5,0.7,2.2-0.6,1.7-1.3L49,34.6c0,0,1.9-2.1,2.7-2.8c0.4-0.4-0.9-1.8-1.4-1.4c-0.4,0.4-3.4,3.4-3.4,3.4s0-1.9,0-2.9
								c0-0.4-0.5-0.6-1-0.6C45.2,30.3,44.7,30.5,44.7,30.9"/>
						</defs>
						<clipPath id="SVGID_9_">
							<use xlink:href="#SVGID_8_"  style="overflow:visible;"/>
						</clipPath>
						<rect x="44.7" y="29.9" class="st6" width="7.6" height="10.4"/>
					</g>
				</g>
			</g>
		</g>
	</g>
</g>
</svg>
